<svg xmlns="http://www.w3.org/2000/svg" width="960" height="1081" fill="none" viewBox="0 0 960 1081"><rect width="15" height="1080" fill="#E6E1DB"/><rect width="16" height="1081" x="-.5" y="-.5" stroke="#1F1A14" stroke-opacity=".2"/><rect width="15" height="1080" x="16" fill="#E6E1DB"/><rect width="16" height="1081" x="15.5" y="-.5" stroke="#1F1A14" stroke-opacity=".2"/><rect width="15" height="1080" x="32" fill="#E6E1DB"/><rect width="16" height="1081" x="31.5" y="-.5" stroke="#1F1A14" stroke-opacity=".2"/><rect width="15" height="1080" x="48" fill="#E6E1DB"/><rect width="16" height="1081" x="47.5" y="-.5" stroke="#1F1A14" stroke-opacity=".2"/><rect width="15" height="1080" x="64" fill="#E6E1DB"/><rect width="16" height="1081" x="63.5" y="-.5" stroke="#1F1A14" stroke-opacity=".2"/><rect width="15" height="1080" x="80" fill="#E6E1DB"/><rect width="16" height="1081" x="79.5" y="-.5" stroke="#1F1A14" stroke-opacity=".2"/><rect width="15" height="1080" x="96" fill="#E6E1DB"/><rect width="16" height="1081" x="95.5" y="-.5" stroke="#1F1A14" stroke-opacity=".2"/><rect width="15" height="1080" x="112" fill="#E6E1DB"/><rect width="16" height="1081" x="111.5" y="-.5" stroke="#1F1A14" stroke-opacity=".2"/><rect width="15" height="1080" x="128" fill="#E6E1DB"/><rect width="16" height="1081" x="127.5" y="-.5" stroke="#1F1A14" stroke-opacity=".2"/><rect width="15" height="1080" x="144" fill="#E6E1DB"/><rect width="16" height="1081" x="143.5" y="-.5" stroke="#1F1A14" stroke-opacity=".2"/><rect width="15" height="1080" x="160" fill="#E6E1DB"/><rect width="16" height="1081" x="159.5" y="-.5" stroke="#1F1A14" stroke-opacity=".2"/><rect width="15" height="1080" x="176" fill="#E6E1DB"/><rect width="16" height="1081" x="175.5" y="-.5" stroke="#1F1A14" stroke-opacity=".2"/><rect width="15" height="1080" x="192" fill="#E6E1DB"/><rect width="16" height="1081" x="191.5" y="-.5" stroke="#1F1A14" stroke-opacity=".2"/><rect width="15" height="1080" x="208" fill="#E6E1DB"/><rect width="16" height="1081" x="207.5" y="-.5" stroke="#1F1A14" stroke-opacity=".2"/><rect width="15" height="1080" x="224" fill="#E6E1DB"/><rect width="16" height="1081" x="223.5" y="-.5" stroke="#1F1A14" stroke-opacity=".2"/><rect width="15" height="1080" x="240" fill="#E6E1DB"/><rect width="16" height="1081" x="239.5" y="-.5" stroke="#1F1A14" stroke-opacity=".2"/><rect width="15" height="1080" x="256" fill="#E6E1DB"/><rect width="16" height="1081" x="255.5" y="-.5" stroke="#1F1A14" stroke-opacity=".2"/><rect width="15" height="1080" x="272" fill="#E6E1DB"/><rect width="16" height="1081" x="271.5" y="-.5" stroke="#1F1A14" stroke-opacity=".2"/><rect width="15" height="1080" x="288" fill="#E6E1DB"/><rect width="16" height="1081" x="287.5" y="-.5" stroke="#1F1A14" stroke-opacity=".2"/><rect width="15" height="1080" x="304" fill="#E6E1DB"/><rect width="16" height="1081" x="303.5" y="-.5" stroke="#1F1A14" stroke-opacity=".2"/><rect width="15" height="1080" x="320" fill="#E6E1DB"/><rect width="16" height="1081" x="319.5" y="-.5" stroke="#1F1A14" stroke-opacity=".2"/><rect width="15" height="1080" x="336" fill="#E6E1DB"/><rect width="16" height="1081" x="335.5" y="-.5" stroke="#1F1A14" stroke-opacity=".2"/><rect width="15" height="1080" x="352" fill="#E6E1DB"/><rect width="16" height="1081" x="351.5" y="-.5" stroke="#1F1A14" stroke-opacity=".2"/><rect width="15" height="1080" x="368" fill="#E6E1DB"/><rect width="16" height="1081" x="367.5" y="-.5" stroke="#1F1A14" stroke-opacity=".2"/><rect width="15" height="1080" x="384" fill="#E6E1DB"/><rect width="16" height="1081" x="383.5" y="-.5" stroke="#1F1A14" stroke-opacity=".2"/><rect width="15" height="1080" x="400" fill="#E6E1DB"/><rect width="16" height="1081" x="399.5" y="-.5" stroke="#1F1A14" stroke-opacity=".2"/><rect width="15" height="1080" x="416" fill="#E6E1DB"/><rect width="16" height="1081" x="415.5" y="-.5" stroke="#1F1A14" stroke-opacity=".2"/><rect width="15" height="1080" x="432" fill="#E6E1DB"/><rect width="16" height="1081" x="431.5" y="-.5" stroke="#1F1A14" stroke-opacity=".2"/><rect width="15" height="1080" x="448" fill="#E6E1DB"/><rect width="16" height="1081" x="447.5" y="-.5" stroke="#1F1A14" stroke-opacity=".2"/><rect width="15" height="1080" x="464" fill="#E6E1DB"/><rect width="16" height="1081" x="463.5" y="-.5" stroke="#1F1A14" stroke-opacity=".2"/><rect width="15" height="1080" x="480" fill="#E6E1DB"/><rect width="16" height="1081" x="479.5" y="-.5" stroke="#1F1A14" stroke-opacity=".2"/><rect width="15" height="1080" x="496" fill="#E6E1DB"/><rect width="16" height="1081" x="495.5" y="-.5" stroke="#1F1A14" stroke-opacity=".2"/><rect width="15" height="1080" x="512" fill="#E6E1DB"/><rect width="16" height="1081" x="511.5" y="-.5" stroke="#1F1A14" stroke-opacity=".2"/><rect width="15" height="1080" x="528" fill="#E6E1DB"/><rect width="16" height="1081" x="527.5" y="-.5" stroke="#1F1A14" stroke-opacity=".2"/><rect width="15" height="1080" x="544" fill="#E6E1DB"/><rect width="16" height="1081" x="543.5" y="-.5" stroke="#1F1A14" stroke-opacity=".2"/><rect width="15" height="1080" x="560" fill="#E6E1DB"/><rect width="16" height="1081" x="559.5" y="-.5" stroke="#1F1A14" stroke-opacity=".2"/><rect width="15" height="1080" x="576" fill="#E6E1DB"/><rect width="16" height="1081" x="575.5" y="-.5" stroke="#1F1A14" stroke-opacity=".2"/><rect width="15" height="1080" x="592" fill="#E6E1DB"/><rect width="16" height="1081" x="591.5" y="-.5" stroke="#1F1A14" stroke-opacity=".2"/><rect width="15" height="1080" x="608" fill="#E6E1DB"/><rect width="16" height="1081" x="607.5" y="-.5" stroke="#1F1A14" stroke-opacity=".2"/><rect width="15" height="1080" x="624" fill="#E6E1DB"/><rect width="16" height="1081" x="623.5" y="-.5" stroke="#1F1A14" stroke-opacity=".2"/><rect width="15" height="1080" x="640" fill="#E6E1DB"/><rect width="16" height="1081" x="639.5" y="-.5" stroke="#1F1A14" stroke-opacity=".2"/><rect width="15" height="1080" x="656" fill="#E6E1DB"/><rect width="16" height="1081" x="655.5" y="-.5" stroke="#1F1A14" stroke-opacity=".2"/><rect width="15" height="1080" x="672" fill="#E6E1DB"/><rect width="16" height="1081" x="671.5" y="-.5" stroke="#1F1A14" stroke-opacity=".2"/><rect width="15" height="1080" x="688" fill="#E6E1DB"/><rect width="16" height="1081" x="687.5" y="-.5" stroke="#1F1A14" stroke-opacity=".2"/><rect width="15" height="1080" x="704" fill="#E6E1DB"/><rect width="16" height="1081" x="703.5" y="-.5" stroke="#1F1A14" stroke-opacity=".2"/><rect width="15" height="1080" x="720" fill="#E6E1DB"/><rect width="16" height="1081" x="719.5" y="-.5" stroke="#1F1A14" stroke-opacity=".2"/><rect width="15" height="1080" x="736" fill="#E6E1DB"/><rect width="16" height="1081" x="735.5" y="-.5" stroke="#1F1A14" stroke-opacity=".2"/><rect width="15" height="1080" x="752" fill="#E6E1DB"/><rect width="16" height="1081" x="751.5" y="-.5" stroke="#1F1A14" stroke-opacity=".2"/><rect width="15" height="1080" x="768" fill="#E6E1DB"/><rect width="16" height="1081" x="767.5" y="-.5" stroke="#1F1A14" stroke-opacity=".2"/><rect width="15" height="1080" x="784" fill="#E6E1DB"/><rect width="16" height="1081" x="783.5" y="-.5" stroke="#1F1A14" stroke-opacity=".2"/><rect width="15" height="1080" x="800" fill="#E6E1DB"/><rect width="16" height="1081" x="799.5" y="-.5" stroke="#1F1A14" stroke-opacity=".2"/><rect width="15" height="1080" x="816" fill="#E6E1DB"/><rect width="16" height="1081" x="815.5" y="-.5" stroke="#1F1A14" stroke-opacity=".2"/><rect width="15" height="1080" x="832" fill="#E6E1DB"/><rect width="16" height="1081" x="831.5" y="-.5" stroke="#1F1A14" stroke-opacity=".2"/><rect width="15" height="1080" x="848" fill="#E6E1DB"/><rect width="16" height="1081" x="847.5" y="-.5" stroke="#1F1A14" stroke-opacity=".2"/><rect width="15" height="1080" x="864" fill="#E6E1DB"/><rect width="16" height="1081" x="863.5" y="-.5" stroke="#1F1A14" stroke-opacity=".2"/><rect width="15" height="1080" x="880" fill="#E6E1DB"/><rect width="16" height="1081" x="879.5" y="-.5" stroke="#1F1A14" stroke-opacity=".2"/><rect width="15" height="1080" x="896" fill="#E6E1DB"/><rect width="16" height="1081" x="895.5" y="-.5" stroke="#1F1A14" stroke-opacity=".2"/><rect width="15" height="1080" x="912" fill="#E6E1DB"/><rect width="16" height="1081" x="911.5" y="-.5" stroke="#1F1A14" stroke-opacity=".2"/><rect width="15" height="1080" x="928" fill="#E6E1DB"/><rect width="16" height="1081" x="927.5" y="-.5" stroke="#1F1A14" stroke-opacity=".2"/><rect width="15" height="1080" x="944" fill="#E6E1DB"/><rect width="16" height="1081" x="943.5" y="-.5" stroke="#1F1A14" stroke-opacity=".2"/></svg>